<?xml version="1.0" encoding="UTF-8" standalone="no"?><svg xmlns="http://www.w3.org/2000/svg" xmlns:xlink="http://www.w3.org/1999/xlink" contentStyleType="text/css" height="1487px" preserveAspectRatio="none" style="width:1841px;height:1487px;background:#FFFFFF;" version="1.1" viewBox="0 0 1841 1487" width="1841px" zoomAndPan="magnify"><defs/><g><rect fill="#FFFFFF" height="29.3105" style="stroke:#181818;stroke-width:1.0;" width="10" x="712" y="153.5977"/><rect fill="#FFFFFF" height="117.2422" style="stroke:#181818;stroke-width:1.0;" width="10" x="712" y="378.082"/><rect fill="#FFFFFF" height="745.7637" style="stroke:#181818;stroke-width:1.0;" width="10" x="861" y="407.3926"/><rect fill="#FFFFFF" height="207.1738" style="stroke:#181818;stroke-width:1.0;" width="10" x="1089" y="436.7031"/><rect fill="#FFFFFF" height="58.6211" style="stroke:#181818;stroke-width:1.0;" width="10" x="1089" y="1216.7773"/><rect fill="#FFFFFF" height="58.6211" style="stroke:#181818;stroke-width:1.0;" width="10" x="1423" y="243.5293"/><rect fill="#FFFFFF" height="29.3105" style="stroke:#181818;stroke-width:1.0;" width="10" x="1423" y="1336.0195"/><rect fill="none" height="75.9316" style="stroke:#000000;stroke-width:1.5;" width="805" x="10" y="114.9766"/><rect fill="none" height="105.2422" style="stroke:#000000;stroke-width:1.5;" width="1726.5" x="109" y="204.9082"/><rect fill="none" height="179.1738" style="stroke:#000000;stroke-width:1.5;" width="819.5" x="331" y="324.1504"/><rect fill="none" height="134.5527" style="stroke:#000000;stroke-width:1.5;" width="927.5" x="223" y="517.3242"/><rect fill="none" height="75.9316" style="stroke:#000000;stroke-width:1.5;" width="586" x="331" y="665.877"/><rect fill="none" height="75.9316" style="stroke:#000000;stroke-width:1.5;" width="586" x="331" y="755.8086"/><rect fill="none" height="134.5527" style="stroke:#000000;stroke-width:1.5;" width="927.5" x="223" y="845.7402"/><rect fill="none" height="169.8633" style="stroke:#000000;stroke-width:1.5;" width="945" x="331" y="994.293"/><rect fill="none" height="105.2422" style="stroke:#000000;stroke-width:1.5;" width="1249.5" x="223" y="1178.1563"/><rect fill="none" height="75.9316" style="stroke:#000000;stroke-width:1.5;" width="452" x="1383.5" y="1297.3984"/><line style="stroke:#181818;stroke-width:0.5;stroke-dasharray:5.0,5.0;" x1="64" x2="64" y1="97.9766" y2="1390.3301"/><line style="stroke:#181818;stroke-width:0.5;stroke-dasharray:5.0,5.0;" x1="171" x2="171" y1="97.9766" y2="1390.3301"/><line style="stroke:#181818;stroke-width:0.5;stroke-dasharray:5.0,5.0;" x1="282" x2="282" y1="97.9766" y2="1390.3301"/><line style="stroke:#181818;stroke-width:0.5;stroke-dasharray:5.0,5.0;" x1="378" x2="378" y1="97.9766" y2="1390.3301"/><line style="stroke:#181818;stroke-width:0.5;stroke-dasharray:5.0,5.0;" x1="443" x2="443" y1="97.9766" y2="1390.3301"/><line style="stroke:#181818;stroke-width:0.5;stroke-dasharray:5.0,5.0;" x1="512" x2="512" y1="97.9766" y2="1390.3301"/><line style="stroke:#181818;stroke-width:0.5;stroke-dasharray:5.0,5.0;" x1="717" x2="717" y1="97.9766" y2="1390.3301"/><line style="stroke:#181818;stroke-width:0.5;stroke-dasharray:5.0,5.0;" x1="866" x2="866" y1="97.9766" y2="1390.3301"/><line style="stroke:#181818;stroke-width:0.5;stroke-dasharray:5.0,5.0;" x1="1093.5" x2="1093.5" y1="97.9766" y2="1390.3301"/><line style="stroke:#181818;stroke-width:0.5;stroke-dasharray:5.0,5.0;" x1="1427.5" x2="1427.5" y1="97.9766" y2="1390.3301"/><line style="stroke:#181818;stroke-width:0.5;stroke-dasharray:5.0,5.0;" x1="1794.5" x2="1794.5" y1="97.9766" y2="1390.3301"/><text fill="#000000" font-family="sans-serif" font-size="14" lengthAdjust="spacing" textLength="83" x="20" y="78.5352">Marketplace</text><text fill="#000000" font-family="sans-serif" font-size="14" lengthAdjust="spacing" textLength="43" x="40" y="95.0234">admin</text><ellipse cx="64.5" cy="13.5" fill="#E2E2F0" rx="8" ry="8" style="stroke:#181818;stroke-width:0.5;"/><path d="M64.5,21.5 L64.5,48.5 M51.5,29.5 L77.5,29.5 M64.5,48.5 L51.5,63.5 M64.5,48.5 L77.5,63.5 " fill="none" style="stroke:#181818;stroke-width:0.5;"/><text fill="#000000" font-family="sans-serif" font-size="14" lengthAdjust="spacing" textLength="83" x="20" y="1402.8652">Marketplace</text><text fill="#000000" font-family="sans-serif" font-size="14" lengthAdjust="spacing" textLength="43" x="40" y="1419.3535">admin</text><ellipse cx="64.5" cy="1430.8066" fill="#E2E2F0" rx="8" ry="8" style="stroke:#181818;stroke-width:0.5;"/><path d="M64.5,1438.8066 L64.5,1465.8066 M51.5,1446.8066 L77.5,1446.8066 M64.5,1465.8066 L51.5,1480.8066 M64.5,1465.8066 L77.5,1480.8066 " fill="none" style="stroke:#181818;stroke-width:0.5;"/><text fill="#000000" font-family="sans-serif" font-size="14" lengthAdjust="spacing" textLength="98" x="119" y="95.0234">Dao fundation</text><ellipse cx="171" cy="29.9883" fill="#E2E2F0" rx="8" ry="8" style="stroke:#181818;stroke-width:0.5;"/><path d="M171,37.9883 L171,64.9883 M158,45.9883 L184,45.9883 M171,64.9883 L158,79.9883 M171,64.9883 L184,79.9883 " fill="none" style="stroke:#181818;stroke-width:0.5;"/><text fill="#000000" font-family="sans-serif" font-size="14" lengthAdjust="spacing" textLength="98" x="119" y="1402.8652">Dao fundation</text><ellipse cx="171" cy="1414.3184" fill="#E2E2F0" rx="8" ry="8" style="stroke:#181818;stroke-width:0.5;"/><path d="M171,1422.3184 L171,1449.3184 M158,1430.3184 L184,1430.3184 M171,1449.3184 L158,1464.3184 M171,1449.3184 L184,1464.3184 " fill="none" style="stroke:#181818;stroke-width:0.5;"/><text fill="#000000" font-family="sans-serif" font-size="14" lengthAdjust="spacing" textLength="44" x="257" y="78.5352">Karma</text><text fill="#000000" font-family="sans-serif" font-size="14" lengthAdjust="spacing" textLength="92" x="233" y="95.0234">DAO member</text><ellipse cx="282" cy="13.5" fill="#E2E2F0" rx="8" ry="8" style="stroke:#181818;stroke-width:0.5;"/><path d="M282,21.5 L282,48.5 M269,29.5 L295,29.5 M282,48.5 L269,63.5 M282,48.5 L295,63.5 " fill="none" style="stroke:#181818;stroke-width:0.5;"/><text fill="#000000" font-family="sans-serif" font-size="14" lengthAdjust="spacing" textLength="44" x="257" y="1402.8652">Karma</text><text fill="#000000" font-family="sans-serif" font-size="14" lengthAdjust="spacing" textLength="92" x="233" y="1419.3535">DAO member</text><ellipse cx="282" cy="1430.8066" fill="#E2E2F0" rx="8" ry="8" style="stroke:#181818;stroke-width:0.5;"/><path d="M282,1438.8066 L282,1465.8066 M269,1446.8066 L295,1446.8066 M282,1465.8066 L269,1480.8066 M282,1465.8066 L295,1480.8066 " fill="none" style="stroke:#181818;stroke-width:0.5;"/><text fill="#000000" font-family="sans-serif" font-size="14" lengthAdjust="spacing" textLength="68" x="341" y="78.5352">Kollection</text><text fill="#000000" font-family="sans-serif" font-size="14" lengthAdjust="spacing" textLength="49" x="350.5" y="95.0234">creator</text><ellipse cx="378" cy="13.5" fill="#E2E2F0" rx="8" ry="8" style="stroke:#181818;stroke-width:0.5;"/><path d="M378,21.5 L378,48.5 M365,29.5 L391,29.5 M378,48.5 L365,63.5 M378,48.5 L391,63.5 " fill="none" style="stroke:#181818;stroke-width:0.5;"/><text fill="#000000" font-family="sans-serif" font-size="14" lengthAdjust="spacing" textLength="68" x="341" y="1402.8652">Kollection</text><text fill="#000000" font-family="sans-serif" font-size="14" lengthAdjust="spacing" textLength="49" x="350.5" y="1419.3535">creator</text><ellipse cx="378" cy="1430.8066" fill="#E2E2F0" rx="8" ry="8" style="stroke:#181818;stroke-width:0.5;"/><path d="M378,1438.8066 L378,1465.8066 M365,1446.8066 L391,1446.8066 M378,1465.8066 L365,1480.8066 M378,1465.8066 L391,1480.8066 " fill="none" style="stroke:#181818;stroke-width:0.5;"/><text fill="#000000" font-family="sans-serif" font-size="14" lengthAdjust="spacing" textLength="31" x="425" y="95.0234">User</text><ellipse cx="443.5" cy="29.9883" fill="#E2E2F0" rx="8" ry="8" style="stroke:#181818;stroke-width:0.5;"/><path d="M443.5,37.9883 L443.5,64.9883 M430.5,45.9883 L456.5,45.9883 M443.5,64.9883 L430.5,79.9883 M443.5,64.9883 L456.5,79.9883 " fill="none" style="stroke:#181818;stroke-width:0.5;"/><text fill="#000000" font-family="sans-serif" font-size="14" lengthAdjust="spacing" textLength="31" x="425" y="1402.8652">User</text><ellipse cx="443.5" cy="1414.3184" fill="#E2E2F0" rx="8" ry="8" style="stroke:#181818;stroke-width:0.5;"/><path d="M443.5,1422.3184 L443.5,1449.3184 M430.5,1430.3184 L456.5,1430.3184 M443.5,1449.3184 L430.5,1464.3184 M443.5,1449.3184 L456.5,1464.3184 " fill="none" style="stroke:#181818;stroke-width:0.5;"/><text fill="#000000" font-family="sans-serif" font-size="14" lengthAdjust="spacing" textLength="74" x="472" y="95.0234">Beneficiary</text><ellipse cx="512" cy="29.9883" fill="#E2E2F0" rx="8" ry="8" style="stroke:#181818;stroke-width:0.5;"/><path d="M512,37.9883 L512,64.9883 M499,45.9883 L525,45.9883 M512,64.9883 L499,79.9883 M512,64.9883 L525,79.9883 " fill="none" style="stroke:#181818;stroke-width:0.5;"/><text fill="#000000" font-family="sans-serif" font-size="14" lengthAdjust="spacing" textLength="74" x="472" y="1402.8652">Beneficiary</text><ellipse cx="512" cy="1414.3184" fill="#E2E2F0" rx="8" ry="8" style="stroke:#181818;stroke-width:0.5;"/><path d="M512,1422.3184 L512,1449.3184 M499,1430.3184 L525,1430.3184 M512,1449.3184 L499,1464.3184 M512,1449.3184 L525,1464.3184 " fill="none" style="stroke:#181818;stroke-width:0.5;"/><rect fill="#E2E2F0" height="30.4883" rx="2.5" ry="2.5" style="stroke:#181818;stroke-width:0.5;" width="176" x="629" y="66.4883"/><text fill="#000000" font-family="sans-serif" font-size="14" lengthAdjust="spacing" textLength="162" x="636" y="87.0234">Karma NFT Marketplace</text><rect fill="#E2E2F0" height="30.4883" rx="2.5" ry="2.5" style="stroke:#181818;stroke-width:0.5;" width="176" x="629" y="1389.3301"/><text fill="#000000" font-family="sans-serif" font-size="14" lengthAdjust="spacing" textLength="162" x="636" y="1409.8652">Karma NFT Marketplace</text><rect fill="#E2E2F0" height="30.4883" rx="2.5" ry="2.5" style="stroke:#181818;stroke-width:0.5;" width="82" x="825" y="66.4883"/><text fill="#000000" font-family="sans-serif" font-size="14" lengthAdjust="spacing" textLength="68" x="832" y="87.0234">Kollection</text><rect fill="#E2E2F0" height="30.4883" rx="2.5" ry="2.5" style="stroke:#181818;stroke-width:0.5;" width="82" x="825" y="1389.3301"/><text fill="#000000" font-family="sans-serif" font-size="14" lengthAdjust="spacing" textLength="68" x="832" y="1409.8652">Kollection</text><rect fill="#E2E2F0" height="30.4883" rx="2.5" ry="2.5" style="stroke:#181818;stroke-width:0.5;" width="93" x="1047.5" y="66.4883"/><text fill="#000000" font-family="sans-serif" font-size="14" lengthAdjust="spacing" textLength="79" x="1054.5" y="87.0234">Karma DAO</text><rect fill="#E2E2F0" height="30.4883" rx="2.5" ry="2.5" style="stroke:#181818;stroke-width:0.5;" width="93" x="1047.5" y="1389.3301"/><text fill="#000000" font-family="sans-serif" font-size="14" lengthAdjust="spacing" textLength="79" x="1054.5" y="1409.8652">Karma DAO</text><rect fill="#E2E2F0" height="46.9766" rx="2.5" ry="2.5" style="stroke:#181818;stroke-width:0.5;" width="69" x="1393.5" y="50"/><text fill="#000000" font-family="sans-serif" font-size="14" lengthAdjust="spacing" textLength="55" x="1400.5" y="70.5352">Investor</text><text fill="#000000" font-family="sans-serif" font-size="14" lengthAdjust="spacing" textLength="35" x="1410.5" y="87.0234">Vault</text><rect fill="#E2E2F0" height="46.9766" rx="2.5" ry="2.5" style="stroke:#181818;stroke-width:0.5;" width="69" x="1393.5" y="1389.3301"/><text fill="#000000" font-family="sans-serif" font-size="14" lengthAdjust="spacing" textLength="55" x="1400.5" y="1409.8652">Investor</text><text fill="#000000" font-family="sans-serif" font-size="14" lengthAdjust="spacing" textLength="35" x="1410.5" y="1426.3535">Vault</text><text fill="#000000" font-family="sans-serif" font-size="14" lengthAdjust="spacing" textLength="55" x="1764.5" y="95.0234">Investor</text><ellipse cx="1795" cy="29.9883" fill="#E2E2F0" rx="8" ry="8" style="stroke:#181818;stroke-width:0.5;"/><path d="M1795,37.9883 L1795,64.9883 M1782,45.9883 L1808,45.9883 M1795,64.9883 L1782,79.9883 M1795,64.9883 L1808,79.9883 " fill="none" style="stroke:#181818;stroke-width:0.5;"/><text fill="#000000" font-family="sans-serif" font-size="14" lengthAdjust="spacing" textLength="55" x="1764.5" y="1402.8652">Investor</text><ellipse cx="1795" cy="1414.3184" fill="#E2E2F0" rx="8" ry="8" style="stroke:#181818;stroke-width:0.5;"/><path d="M1795,1422.3184 L1795,1449.3184 M1782,1430.3184 L1808,1430.3184 M1795,1449.3184 L1782,1464.3184 M1795,1449.3184 L1808,1464.3184 " fill="none" style="stroke:#181818;stroke-width:0.5;"/><rect fill="#FFFFFF" height="29.3105" style="stroke:#181818;stroke-width:1.0;" width="10" x="712" y="153.5977"/><rect fill="#FFFFFF" height="117.2422" style="stroke:#181818;stroke-width:1.0;" width="10" x="712" y="378.082"/><rect fill="#FFFFFF" height="745.7637" style="stroke:#181818;stroke-width:1.0;" width="10" x="861" y="407.3926"/><rect fill="#FFFFFF" height="207.1738" style="stroke:#181818;stroke-width:1.0;" width="10" x="1089" y="436.7031"/><rect fill="#FFFFFF" height="58.6211" style="stroke:#181818;stroke-width:1.0;" width="10" x="1089" y="1216.7773"/><rect fill="#FFFFFF" height="58.6211" style="stroke:#181818;stroke-width:1.0;" width="10" x="1423" y="243.5293"/><rect fill="#FFFFFF" height="29.3105" style="stroke:#181818;stroke-width:1.0;" width="10" x="1423" y="1336.0195"/><path d="M10,114.9766 L233,114.9766 L233,122.2871 L223,132.2871 L10,132.2871 L10,114.9766 " fill="#EEEEEE" style="stroke:#000000;stroke-width:1.5;"/><rect fill="none" height="75.9316" style="stroke:#000000;stroke-width:1.5;" width="805" x="10" y="114.9766"/><text fill="#000000" font-family="sans-serif" font-size="13" font-weight="bold" lengthAdjust="spacing" textLength="178" x="25" y="128.5449">Creator permissions (OPT)</text><polygon fill="#181818" points="700,149.5977,710,153.5977,700,157.5977,704,153.5977" style="stroke:#181818;stroke-width:1.0;"/><line style="stroke:#181818;stroke-width:1.0;" x1="64.5" x2="706" y1="153.5977" y2="153.5977"/><text fill="#000000" font-family="sans-serif" font-size="13" font-weight="bold" lengthAdjust="spacing" textLength="9" x="71.5" y="148.8555">1</text><text fill="#000000" font-family="sans-serif" font-size="13" lengthAdjust="spacing" textLength="401" x="84.5" y="148.8555">Authorize / Delete Authorization of "Kollection creator" address</text><polygon fill="#181818" points="75.5,178.9082,65.5,182.9082,75.5,186.9082,71.5,182.9082" style="stroke:#181818;stroke-width:1.0;"/><line style="stroke:#181818;stroke-width:1.0;stroke-dasharray:2.0,2.0;" x1="69.5" x2="716" y1="182.9082" y2="182.9082"/><text fill="#000000" font-family="sans-serif" font-size="13" font-weight="bold" lengthAdjust="spacing" textLength="9" x="81.5" y="178.166">2</text><text fill="#000000" font-family="sans-serif" font-size="13" lengthAdjust="spacing" textLength="18" x="94.5" y="178.166">OK</text><path d="M109,204.9082 L272,204.9082 L272,212.2188 L262,222.2188 L109,222.2188 L109,204.9082 " fill="#EEEEEE" style="stroke:#000000;stroke-width:1.5;"/><rect fill="none" height="105.2422" style="stroke:#000000;stroke-width:1.5;" width="1726.5" x="109" y="204.9082"/><text fill="#000000" font-family="sans-serif" font-size="13" font-weight="bold" lengthAdjust="spacing" textLength="118" x="124" y="218.4766">Karma Gold Swap</text><polygon fill="#181818" points="1444,239.5293,1434,243.5293,1444,247.5293,1440,243.5293" style="stroke:#181818;stroke-width:1.0;"/><line style="stroke:#181818;stroke-width:1.0;" x1="1438" x2="1794" y1="243.5293" y2="243.5293"/><text fill="#000000" font-family="sans-serif" font-size="13" font-weight="bold" lengthAdjust="spacing" textLength="9" x="1450" y="238.7871">3</text><text fill="#000000" font-family="sans-serif" font-size="13" lengthAdjust="spacing" textLength="22" x="1463" y="238.7871">Buy</text><text fill="#000000" font-family="sans-serif" font-size="13" font-weight="bold" lengthAdjust="spacing" textLength="58" x="1489" y="238.7871">KRMGLD</text><text fill="#000000" font-family="sans-serif" font-size="13" lengthAdjust="spacing" textLength="104" x="1551" y="238.7871">with stablecoin (</text><text fill="#000000" font-family="sans-serif" font-size="13" font-weight="bold" lengthAdjust="spacing" textLength="36" x="1655" y="238.7871">USDC</text><text fill="#000000" font-family="sans-serif" font-size="13" lengthAdjust="spacing" textLength="13" x="1695" y="238.7871">or</text><text fill="#000000" font-family="sans-serif" font-size="13" font-weight="bold" lengthAdjust="spacing" textLength="36" x="1712" y="238.7871">USDT</text><text fill="#000000" font-family="sans-serif" font-size="13" lengthAdjust="spacing" textLength="4" x="1748" y="238.7871">)</text><polygon fill="#181818" points="182,268.8398,172,272.8398,182,276.8398,178,272.8398" style="stroke:#181818;stroke-width:1.0;"/><line style="stroke:#181818;stroke-width:1.0;stroke-dasharray:2.0,2.0;" x1="176" x2="1422" y1="272.8398" y2="272.8398"/><text fill="#000000" font-family="sans-serif" font-size="13" font-weight="bold" lengthAdjust="spacing" textLength="9" x="188" y="268.0977">4</text><text fill="#000000" font-family="sans-serif" font-size="13" lengthAdjust="spacing" textLength="73" x="201" y="268.0977">Stablecoin (</text><text fill="#000000" font-family="sans-serif" font-size="13" font-weight="bold" lengthAdjust="spacing" textLength="94" x="274" y="268.0977">USDT or USDC</text><text fill="#000000" font-family="sans-serif" font-size="13" lengthAdjust="spacing" textLength="4" x="368" y="268.0977">)</text><polygon fill="#181818" points="1783,298.1504,1793,302.1504,1783,306.1504,1787,302.1504" style="stroke:#181818;stroke-width:1.0;"/><line style="stroke:#181818;stroke-width:1.0;stroke-dasharray:2.0,2.0;" x1="1428" x2="1789" y1="302.1504" y2="302.1504"/><text fill="#000000" font-family="sans-serif" font-size="13" font-weight="bold" lengthAdjust="spacing" textLength="9" x="1435" y="297.4082">5</text><text fill="#000000" font-family="sans-serif" font-size="13" font-weight="bold" lengthAdjust="spacing" textLength="58" x="1448" y="297.4082">KRMGLD</text><path d="M331,324.1504 L501,324.1504 L501,331.4609 L491,341.4609 L331,341.4609 L331,324.1504 " fill="#EEEEEE" style="stroke:#000000;stroke-width:1.5;"/><rect fill="none" height="179.1738" style="stroke:#000000;stroke-width:1.5;" width="819.5" x="331" y="324.1504"/><text fill="#000000" font-family="sans-serif" font-size="13" font-weight="bold" lengthAdjust="spacing" textLength="125" x="346" y="337.7188">Kollection creation</text><polygon fill="#181818" points="700,374.082,710,378.082,700,382.082,704,378.082" style="stroke:#181818;stroke-width:1.0;"/><line style="stroke:#181818;stroke-width:1.0;" x1="378" x2="706" y1="378.082" y2="378.082"/><text fill="#000000" font-family="sans-serif" font-size="13" font-weight="bold" lengthAdjust="spacing" textLength="9" x="385" y="365.6846">6</text><text fill="#000000" font-family="sans-serif" font-size="13" lengthAdjust="spacing" textLength="209" x="398" y="358.0293">Create Kollection and setting fee:</text><text fill="#000000" font-family="sans-serif" font-size="13" lengthAdjust="spacing" textLength="302" x="398" y="373.3398">for his organization, beneficiary, and karma dao</text><polygon fill="#181818" points="849,403.3926,859,407.3926,849,411.3926,853,407.3926" style="stroke:#181818;stroke-width:1.0;"/><line style="stroke:#181818;stroke-width:1.0;" x1="722" x2="855" y1="407.3926" y2="407.3926"/><text fill="#000000" font-family="sans-serif" font-size="13" font-weight="bold" lengthAdjust="spacing" textLength="9" x="729" y="402.6504">7</text><text fill="#000000" font-family="sans-serif" font-size="13" lengthAdjust="spacing" textLength="107" x="742" y="402.6504">Create Kollection</text><polygon fill="#181818" points="1077,432.7031,1087,436.7031,1077,440.7031,1081,436.7031" style="stroke:#181818;stroke-width:1.0;"/><line style="stroke:#181818;stroke-width:1.0;" x1="722" x2="1083" y1="436.7031" y2="436.7031"/><text fill="#000000" font-family="sans-serif" font-size="13" font-weight="bold" lengthAdjust="spacing" textLength="9" x="729" y="431.9609">8</text><text fill="#000000" font-family="sans-serif" font-size="13" lengthAdjust="spacing" textLength="240" x="742" y="431.9609">Create a authorize kollection proposal</text><polygon fill="#181818" points="733,462.0137,723,466.0137,733,470.0137,729,466.0137" style="stroke:#181818;stroke-width:1.0;"/><line style="stroke:#181818;stroke-width:1.0;stroke-dasharray:2.0,2.0;" x1="727" x2="1088" y1="466.0137" y2="466.0137"/><text fill="#000000" font-family="sans-serif" font-size="13" font-weight="bold" lengthAdjust="spacing" textLength="9" x="739" y="461.2715">9</text><text fill="#000000" font-family="sans-serif" font-size="13" lengthAdjust="spacing" textLength="18" x="752" y="461.2715">OK</text><polygon fill="#181818" points="389,491.3242,379,495.3242,389,499.3242,385,495.3242" style="stroke:#181818;stroke-width:1.0;"/><line style="stroke:#181818;stroke-width:1.0;stroke-dasharray:2.0,2.0;" x1="383" x2="716" y1="495.3242" y2="495.3242"/><text fill="#000000" font-family="sans-serif" font-size="13" font-weight="bold" lengthAdjust="spacing" textLength="18" x="395" y="490.582">10</text><text fill="#000000" font-family="sans-serif" font-size="13" lengthAdjust="spacing" textLength="18" x="417" y="490.582">OK</text><path d="M223,517.3242 L373,517.3242 L373,524.6348 L363,534.6348 L223,534.6348 L223,517.3242 " fill="#EEEEEE" style="stroke:#000000;stroke-width:1.5;"/><rect fill="none" height="134.5527" style="stroke:#000000;stroke-width:1.5;" width="927.5" x="223" y="517.3242"/><text fill="#000000" font-family="sans-serif" font-size="13" font-weight="bold" lengthAdjust="spacing" textLength="105" x="238" y="530.8926">Proposal voting</text><polygon fill="#181818" points="1077,551.9453,1087,555.9453,1077,559.9453,1081,555.9453" style="stroke:#181818;stroke-width:1.0;"/><line style="stroke:#181818;stroke-width:1.0;" x1="282" x2="1083" y1="555.9453" y2="555.9453"/><text fill="#000000" font-family="sans-serif" font-size="13" font-weight="bold" lengthAdjust="spacing" textLength="18" x="289" y="551.2031">11</text><text fill="#000000" font-family="sans-serif" font-size="13" lengthAdjust="spacing" textLength="87" x="311" y="551.2031">Vote proposal</text><polygon fill="#181818" points="293,581.2559,283,585.2559,293,589.2559,289,585.2559" style="stroke:#181818;stroke-width:1.0;"/><line style="stroke:#181818;stroke-width:1.0;stroke-dasharray:2.0,2.0;" x1="287" x2="1088" y1="585.2559" y2="585.2559"/><text fill="#000000" font-family="sans-serif" font-size="13" font-weight="bold" lengthAdjust="spacing" textLength="18" x="299" y="580.5137">12</text><text fill="#000000" font-family="sans-serif" font-size="13" lengthAdjust="spacing" textLength="18" x="321" y="580.5137">OK</text><polygon fill="#181818" points="1077,610.5664,1087,614.5664,1077,618.5664,1081,614.5664" style="stroke:#181818;stroke-width:1.0;"/><line style="stroke:#181818;stroke-width:1.0;" x1="282" x2="1083" y1="614.5664" y2="614.5664"/><text fill="#000000" font-family="sans-serif" font-size="13" font-weight="bold" lengthAdjust="spacing" textLength="18" x="289" y="609.8242">13</text><text fill="#000000" font-family="sans-serif" font-size="13" lengthAdjust="spacing" textLength="95" x="311" y="609.8242">Claim proposal</text><polygon fill="#181818" points="293,639.877,283,643.877,293,647.877,289,643.877" style="stroke:#181818;stroke-width:1.0;"/><line style="stroke:#181818;stroke-width:1.0;stroke-dasharray:2.0,2.0;" x1="287" x2="1093" y1="643.877" y2="643.877"/><text fill="#000000" font-family="sans-serif" font-size="13" font-weight="bold" lengthAdjust="spacing" textLength="18" x="299" y="639.1348">14</text><text fill="#000000" font-family="sans-serif" font-size="13" lengthAdjust="spacing" textLength="18" x="321" y="639.1348">OK</text><path d="M331,665.877 L436,665.877 L436,673.1875 L426,683.1875 L331,683.1875 L331,665.877 " fill="#EEEEEE" style="stroke:#000000;stroke-width:1.5;"/><rect fill="none" height="75.9316" style="stroke:#000000;stroke-width:1.5;" width="586" x="331" y="665.877"/><text fill="#000000" font-family="sans-serif" font-size="13" font-weight="bold" lengthAdjust="spacing" textLength="60" x="346" y="679.4453">Mint NFT</text><polygon fill="#181818" points="849,700.498,859,704.498,849,708.498,853,704.498" style="stroke:#181818;stroke-width:1.0;"/><line style="stroke:#181818;stroke-width:1.0;" x1="378" x2="855" y1="704.498" y2="704.498"/><text fill="#000000" font-family="sans-serif" font-size="13" font-weight="bold" lengthAdjust="spacing" textLength="18" x="385" y="699.7559">15</text><text fill="#000000" font-family="sans-serif" font-size="13" lengthAdjust="spacing" textLength="57" x="407" y="699.7559">Mint NFT</text><polygon fill="#181818" points="389,729.8086,379,733.8086,389,737.8086,385,733.8086" style="stroke:#181818;stroke-width:1.0;"/><line style="stroke:#181818;stroke-width:1.0;stroke-dasharray:2.0,2.0;" x1="383" x2="860" y1="733.8086" y2="733.8086"/><text fill="#000000" font-family="sans-serif" font-size="13" font-weight="bold" lengthAdjust="spacing" textLength="18" x="395" y="729.0664">16</text><text fill="#000000" font-family="sans-serif" font-size="13" lengthAdjust="spacing" textLength="18" x="417" y="729.0664">OK</text><path d="M331,755.8086 L432,755.8086 L432,763.1191 L422,773.1191 L331,773.1191 L331,755.8086 " fill="#EEEEEE" style="stroke:#000000;stroke-width:1.5;"/><rect fill="none" height="75.9316" style="stroke:#000000;stroke-width:1.5;" width="586" x="331" y="755.8086"/><text fill="#000000" font-family="sans-serif" font-size="13" font-weight="bold" lengthAdjust="spacing" textLength="56" x="346" y="769.377">Updates</text><polygon fill="#181818" points="849,790.4297,859,794.4297,849,798.4297,853,794.4297" style="stroke:#181818;stroke-width:1.0;"/><line style="stroke:#181818;stroke-width:1.0;" x1="378" x2="855" y1="794.4297" y2="794.4297"/><text fill="#000000" font-family="sans-serif" font-size="13" font-weight="bold" lengthAdjust="spacing" textLength="18" x="385" y="789.6875">17</text><text fill="#000000" font-family="sans-serif" font-size="13" lengthAdjust="spacing" textLength="236" x="407" y="789.6875">Publish activity update about the NFT</text><polygon fill="#181818" points="389,819.7402,379,823.7402,389,827.7402,385,823.7402" style="stroke:#181818;stroke-width:1.0;"/><line style="stroke:#181818;stroke-width:1.0;stroke-dasharray:2.0,2.0;" x1="383" x2="860" y1="823.7402" y2="823.7402"/><text fill="#000000" font-family="sans-serif" font-size="13" font-weight="bold" lengthAdjust="spacing" textLength="18" x="395" y="818.998">18</text><text fill="#000000" font-family="sans-serif" font-size="13" lengthAdjust="spacing" textLength="18" x="417" y="818.998">OK</text><path d="M223,845.7402 L360,845.7402 L360,853.0508 L350,863.0508 L223,863.0508 L223,845.7402 " fill="#EEEEEE" style="stroke:#000000;stroke-width:1.5;"/><rect fill="none" height="134.5527" style="stroke:#000000;stroke-width:1.5;" width="927.5" x="223" y="845.7402"/><text fill="#000000" font-family="sans-serif" font-size="13" font-weight="bold" lengthAdjust="spacing" textLength="92" x="238" y="859.3086">Quality check</text><polygon fill="#181818" points="849,880.3613,859,884.3613,849,888.3613,853,884.3613" style="stroke:#181818;stroke-width:1.0;"/><line style="stroke:#181818;stroke-width:1.0;" x1="282" x2="855" y1="884.3613" y2="884.3613"/><text fill="#000000" font-family="sans-serif" font-size="13" font-weight="bold" lengthAdjust="spacing" textLength="18" x="289" y="879.6191">19</text><text fill="#000000" font-family="sans-serif" font-size="13" lengthAdjust="spacing" textLength="309" x="311" y="879.6191">Dao member constantly check quality of updates</text><polygon fill="#181818" points="293,909.6719,283,913.6719,293,917.6719,289,913.6719" style="stroke:#181818;stroke-width:1.0;"/><line style="stroke:#181818;stroke-width:1.0;stroke-dasharray:2.0,2.0;" x1="287" x2="860" y1="913.6719" y2="913.6719"/><text fill="#000000" font-family="sans-serif" font-size="13" font-weight="bold" lengthAdjust="spacing" textLength="18" x="299" y="908.9297">20</text><text fill="#000000" font-family="sans-serif" font-size="13" lengthAdjust="spacing" textLength="4" x="321" y="908.9297"> </text><polygon fill="#181818" points="1082,938.9824,1092,942.9824,1082,946.9824,1086,942.9824" style="stroke:#181818;stroke-width:1.0;"/><line style="stroke:#181818;stroke-width:1.0;" x1="282" x2="1088" y1="942.9824" y2="942.9824"/><text fill="#000000" font-family="sans-serif" font-size="13" font-weight="bold" lengthAdjust="spacing" textLength="18" x="289" y="938.2402">21</text><text fill="#000000" font-family="sans-serif" font-size="13" lengthAdjust="spacing" textLength="275" x="311" y="938.2402">(Optional) Proposal to remove authorization</text><polygon fill="#181818" points="293,968.293,283,972.293,293,976.293,289,972.293" style="stroke:#181818;stroke-width:1.0;"/><line style="stroke:#181818;stroke-width:1.0;stroke-dasharray:2.0,2.0;" x1="287" x2="1093" y1="972.293" y2="972.293"/><text fill="#000000" font-family="sans-serif" font-size="13" font-weight="bold" lengthAdjust="spacing" textLength="18" x="299" y="967.5508">22</text><text fill="#000000" font-family="sans-serif" font-size="13" lengthAdjust="spacing" textLength="4" x="321" y="967.5508"> </text><path d="M331,994.293 L431,994.293 L431,1001.6035 L421,1011.6035 L331,1011.6035 L331,994.293 " fill="#EEEEEE" style="stroke:#000000;stroke-width:1.5;"/><rect fill="none" height="169.8633" style="stroke:#000000;stroke-width:1.5;" width="945" x="331" y="994.293"/><text fill="#000000" font-family="sans-serif" font-size="13" font-weight="bold" lengthAdjust="spacing" textLength="55" x="346" y="1007.8613">Buy NFT</text><polygon fill="#181818" points="849,1028.9141,859,1032.9141,849,1036.9141,853,1032.9141" style="stroke:#181818;stroke-width:1.0;"/><line style="stroke:#181818;stroke-width:1.0;" x1="443.5" x2="855" y1="1032.9141" y2="1032.9141"/><text fill="#000000" font-family="sans-serif" font-size="13" font-weight="bold" lengthAdjust="spacing" textLength="18" x="450.5" y="1028.1719">23</text><text fill="#000000" font-family="sans-serif" font-size="13" lengthAdjust="spacing" textLength="119" x="472.5" y="1028.1719">Buy NFT with (ETH)</text><polygon fill="#181818" points="389,1058.2246,379,1062.2246,389,1066.2246,385,1062.2246" style="stroke:#181818;stroke-width:1.0;"/><line style="stroke:#181818;stroke-width:1.0;stroke-dasharray:2.0,2.0;" x1="383" x2="860" y1="1062.2246" y2="1062.2246"/><text fill="#000000" font-family="sans-serif" font-size="13" font-weight="bold" lengthAdjust="spacing" textLength="18" x="395" y="1057.4824">24</text><text fill="#000000" font-family="sans-serif" font-size="13" lengthAdjust="spacing" textLength="194" x="417" y="1057.4824">Creator commission fees (ETH)</text><polygon fill="#181818" points="523,1087.5352,513,1091.5352,523,1095.5352,519,1091.5352" style="stroke:#181818;stroke-width:1.0;"/><line style="stroke:#181818;stroke-width:1.0;stroke-dasharray:2.0,2.0;" x1="517" x2="860" y1="1091.5352" y2="1091.5352"/><text fill="#000000" font-family="sans-serif" font-size="13" font-weight="bold" lengthAdjust="spacing" textLength="18" x="529" y="1086.793">25</text><text fill="#000000" font-family="sans-serif" font-size="13" lengthAdjust="spacing" textLength="216" x="551" y="1086.793">Beneficiary commission fees (ETH)</text><polygon fill="#181818" points="1082,1116.8457,1092,1120.8457,1082,1124.8457,1086,1120.8457" style="stroke:#181818;stroke-width:1.0;"/><line style="stroke:#181818;stroke-width:1.0;stroke-dasharray:2.0,2.0;" x1="871" x2="1088" y1="1120.8457" y2="1120.8457"/><text fill="#000000" font-family="sans-serif" font-size="13" font-weight="bold" lengthAdjust="spacing" textLength="18" x="878" y="1116.1035">26</text><text fill="#000000" font-family="sans-serif" font-size="13" lengthAdjust="spacing" textLength="177" x="900" y="1116.1035">DAO commission fees (ETH)</text><polygon fill="#181818" points="454.5,1149.1563,444.5,1153.1563,454.5,1157.1563,450.5,1153.1563" style="stroke:#181818;stroke-width:1.0;"/><line style="stroke:#181818;stroke-width:1.0;stroke-dasharray:2.0,2.0;" x1="448.5" x2="865" y1="1153.1563" y2="1153.1563"/><text fill="#000000" font-family="sans-serif" font-size="13" font-weight="bold" lengthAdjust="spacing" textLength="18" x="460.5" y="1148.4141">27</text><text fill="#000000" font-family="sans-serif" font-size="13" lengthAdjust="spacing" textLength="149" x="482.5" y="1148.4141">Ownership transfered +</text><text fill="#000000" font-family="sans-serif" font-size="13" font-weight="bold" lengthAdjust="spacing" textLength="85" x="635.5" y="1148.4141">1 KRM token</text><path d="M876,1133.8457 L876,1158.8457 L1261,1158.8457 L1261,1143.8457 L1251,1133.8457 L876,1133.8457 " fill="#FEFFDD" style="stroke:#181818;stroke-width:0.5;"/><path d="M1251,1133.8457 L1251,1143.8457 L1261,1143.8457 L1251,1133.8457 " fill="#FEFFDD" style="stroke:#181818;stroke-width:0.5;"/><text fill="#000000" font-family="sans-serif" font-size="13" lengthAdjust="spacing" textLength="364" x="882" y="1151.4141">The owner of the token receives the remaning profit (ETH)</text><path d="M223,1178.1563 L391,1178.1563 L391,1185.4668 L381,1195.4668 L223,1195.4668 L223,1178.1563 " fill="#EEEEEE" style="stroke:#000000;stroke-width:1.5;"/><rect fill="none" height="105.2422" style="stroke:#000000;stroke-width:1.5;" width="1249.5" x="223" y="1178.1563"/><text fill="#000000" font-family="sans-serif" font-size="13" font-weight="bold" lengthAdjust="spacing" textLength="123" x="238" y="1191.7246">DAO reward claim</text><polygon fill="#181818" points="1077,1212.7773,1087,1216.7773,1077,1220.7773,1081,1216.7773" style="stroke:#181818;stroke-width:1.0;"/><line style="stroke:#181818;stroke-width:1.0;" x1="282" x2="1083" y1="1216.7773" y2="1216.7773"/><text fill="#000000" font-family="sans-serif" font-size="13" font-weight="bold" lengthAdjust="spacing" textLength="18" x="289" y="1212.0352">28</text><text fill="#000000" font-family="sans-serif" font-size="13" lengthAdjust="spacing" textLength="89" x="311" y="1212.0352">Claim rewards</text><polygon fill="#181818" points="1416,1242.0879,1426,1246.0879,1416,1250.0879,1420,1246.0879" style="stroke:#181818;stroke-width:1.0;"/><line style="stroke:#181818;stroke-width:1.0;stroke-dasharray:2.0,2.0;" x1="1099" x2="1422" y1="1246.0879" y2="1246.0879"/><text fill="#000000" font-family="sans-serif" font-size="13" font-weight="bold" lengthAdjust="spacing" textLength="18" x="1106" y="1241.3457">29</text><text fill="#000000" font-family="sans-serif" font-size="13" font-weight="bold" lengthAdjust="spacing" textLength="28" x="1128" y="1241.3457">40%</text><text fill="#000000" font-family="sans-serif" font-size="13" lengthAdjust="spacing" textLength="247" x="1164" y="1241.3457">of te rewards goes to the Investor vault</text><polygon fill="#181818" points="293,1271.3984,283,1275.3984,293,1279.3984,289,1275.3984" style="stroke:#181818;stroke-width:1.0;"/><line style="stroke:#181818;stroke-width:1.0;stroke-dasharray:2.0,2.0;" x1="287" x2="1093" y1="1275.3984" y2="1275.3984"/><text fill="#000000" font-family="sans-serif" font-size="13" font-weight="bold" lengthAdjust="spacing" textLength="18" x="299" y="1270.6563">30</text><text fill="#000000" font-family="sans-serif" font-size="13" lengthAdjust="spacing" textLength="296" x="321" y="1270.6563">Rewards to each DAO member who voted (ETH)</text><path d="M1383.5,1297.3984 L1542.5,1297.3984 L1542.5,1304.709 L1532.5,1314.709 L1383.5,1314.709 L1383.5,1297.3984 " fill="#EEEEEE" style="stroke:#000000;stroke-width:1.5;"/><rect fill="none" height="75.9316" style="stroke:#000000;stroke-width:1.5;" width="452" x="1383.5" y="1297.3984"/><text fill="#000000" font-family="sans-serif" font-size="13" font-weight="bold" lengthAdjust="spacing" textLength="114" x="1398.5" y="1310.9668">Investor rewards</text><polygon fill="#181818" points="1444,1332.0195,1434,1336.0195,1444,1340.0195,1440,1336.0195" style="stroke:#181818;stroke-width:1.0;"/><line style="stroke:#181818;stroke-width:1.0;" x1="1438" x2="1794" y1="1336.0195" y2="1336.0195"/><text fill="#000000" font-family="sans-serif" font-size="13" font-weight="bold" lengthAdjust="spacing" textLength="18" x="1450" y="1331.2773">31</text><text fill="#000000" font-family="sans-serif" font-size="13" lengthAdjust="spacing" textLength="89" x="1472" y="1331.2773">Claim rewards</text><polygon fill="#181818" points="1783,1361.3301,1793,1365.3301,1783,1369.3301,1787,1365.3301" style="stroke:#181818;stroke-width:1.0;"/><line style="stroke:#181818;stroke-width:1.0;stroke-dasharray:2.0,2.0;" x1="1428" x2="1789" y1="1365.3301" y2="1365.3301"/><text fill="#000000" font-family="sans-serif" font-size="13" font-weight="bold" lengthAdjust="spacing" textLength="18" x="1435" y="1360.5879">32</text><text fill="#000000" font-family="sans-serif" font-size="13" lengthAdjust="spacing" textLength="316" x="1457" y="1360.5879">Reward based of relative KRMGLD ownership (ETH)</text><!--MD5=[4cbb3c362869ba82204700045b5e1700]
@startuml KRC721

    autonumber

    actor admin as "Marketplace\nadmin"
    actor daoF as "Dao fundation"
    actor dao as "Karma\nDAO member"
    actor creator as "Kollection\ncreator"
    actor user as "User"
    actor beneficiary as "Beneficiary"
    participant krc721 as "Karma NFT Marketplace"
    participant kollection as "Kollection"
    participant krc20 as "Karma DAO"
    participant distributor as "Investor\nVault" 
    actor investor as "Investor"

    group Creator permissions (OPT)
        admin -> krc721: Authorize / Delete Authorization of "Kollection creator" address
        activate krc721
        krc721 - -> admin: OK
        deactivate krc721
    end group

    group Karma Gold Swap
        investor -> distributor: Buy **KRMGLD** with stablecoin (**USDC** or **USDT**)
        activate distributor
        distributor - -> daoF: Stablecoin (**USDT or USDC**)
        distributor - -> investor: **KRMGLD**
        deactivate distributor
    end group 

    group Kollection creation
        creator -> krc721: Create Kollection and setting fee:\nfor his organization, beneficiary, and karma dao
        activate krc721
        krc721 -> kollection: Create Kollection
        activate kollection
        krc721 -> krc20: Create a authorize kollection proposal
        activate krc20
        krc20 - -> krc721: OK
        krc721 - -> creator: OK
        deactivate krc721
    end group

    group Proposal voting
    dao -> krc20: Vote proposal
    krc20 - -> dao: OK

    dao -> krc20: Claim proposal
    krc20 - -> dao: OK
    deactivate krc20
    end group

    group Mint NFT
    creator -> kollection: Mint NFT
    kollection - -> creator: OK
    end group

    group Updates
    creator -> kollection: Publish activity update about the NFT
    kollection - -> creator: OK
    end group

    group Quality check
        dao -> kollection: Dao member constantly check quality of updates
        kollection - -> dao
        dao -> krc20: (Optional) Proposal to remove authorization
        krc20 - -> dao
    end group

    group Buy NFT
        user -> kollection: Buy NFT with (ETH)
        kollection - -> creator: Creator commission fees (ETH)
        kollection - -> beneficiary: Beneficiary commission fees (ETH)
        kollection - -> krc20: DAO commission fees (ETH)
        kollection - -> user: Ownership transfered + **1 KRM token**
        note right 
            The owner of the token receives the remaning profit (ETH)
        end note
        deactivate kollection
    end group

    group DAO reward claim
        dao -> krc20: Claim rewards
        activate krc20
        krc20 - -> distributor: **40% ** of te rewards goes to the Investor vault
        krc20 - -> dao: Rewards to each DAO member who voted (ETH)
        deactivate krc20
    end group

    group Investor rewards
        investor -> distributor: Claim rewards
        activate distributor
        distributor - -> investor: Reward based of relative KRMGLD ownership (ETH)
        deactivate distributor
    end group


@enduml

PlantUML version 1.2022.7(Mon Aug 22 18:01:30 WEST 2022)
(GPL source distribution)
Java Runtime: Java(TM) SE Runtime Environment
JVM: Java HotSpot(TM) 64-Bit Server VM
Default Encoding: UTF-8
Language: en
Country: GB
--></g></svg>